<svg width="1236" height="994" viewBox="0 0 1236 994" fill="none" xmlns="http://www.w3.org/2000/svg">
<rect x="519" y="611" width="96" height="96" fill="#BCE56B"/>
<path d="M915.515 105.32C880.286 54.1641 826.827 18.4166 766.093 5.40212C705.358 -7.61241 641.946 3.09128 588.848 35.3201L402.182 153.987C376.965 169.78 355.356 190.705 338.758 215.4C322.161 240.094 310.948 268.006 305.848 297.32C296.801 346.573 304.671 397.438 328.182 441.653C312.077 465.775 301.283 493.044 296.515 521.653C291.221 551.454 291.913 582.011 298.552 611.542C305.19 641.072 317.642 668.986 335.182 693.653C370.467 744.726 423.87 780.452 484.542 793.577C545.215 806.703 608.609 796.242 661.848 764.32L848.515 645.653C873.669 629.826 895.215 608.886 911.754 584.193C928.292 559.5 939.454 531.606 944.515 502.32C953.485 453.174 945.616 402.44 922.182 358.32C946.4 320.283 958.704 275.878 957.516 230.801C956.328 185.724 941.703 142.029 915.515 105.32ZM570.182 703.987C540.876 711.607 509.936 710.033 481.555 699.48C453.173 688.926 428.722 669.903 411.515 644.987C389.848 614.987 381.848 577.987 388.182 541.32L391.848 523.653L395.182 512.653L405.182 519.32C427.182 535.987 451.848 547.987 478.182 555.987L484.848 558.32L484.182 564.987C483.515 574.32 486.182 584.653 491.515 592.653C502.515 608.32 521.515 615.987 539.848 610.987C543.848 609.653 547.848 608.32 551.182 606.32L737.182 487.653C746.515 481.653 752.515 472.653 754.848 461.987C756.848 450.987 754.182 439.653 748.182 430.653C737.182 415.32 718.182 408.32 699.848 412.987C695.848 414.32 691.515 415.987 688.182 417.987L617.848 462.653C585.746 481.724 547.612 487.925 511.122 480.009C474.631 472.092 442.495 450.646 421.182 419.987C410.568 405.14 403.035 388.319 399.027 370.514C395.02 352.709 394.619 334.282 397.848 316.32C401.028 298.535 407.927 281.622 418.094 266.687C428.261 251.752 441.467 239.132 456.848 229.653L642.515 110.987C654.182 103.653 666.848 98.3201 680.515 94.3201C740.515 78.6534 803.848 102.32 839.182 152.987C851.548 170.349 859.702 190.352 863 211.411C866.298 232.471 864.648 254.009 858.182 274.32L854.848 285.32L845.182 278.653C822.947 262.437 798.162 250.044 771.848 241.987L765.182 239.987L765.848 233.32C766.515 223.653 763.848 213.32 758.515 205.32C747.515 189.653 728.515 182.987 710.182 187.653C706.182 188.987 702.182 190.32 698.848 192.32L512.515 311.987C503.182 318.32 497.182 326.987 495.182 337.987C493.182 348.653 495.848 360.32 501.848 368.987C512.515 384.653 531.848 391.32 549.848 386.653C554.182 385.32 558.182 383.987 561.515 381.987L632.515 336.653C644.182 328.987 657.182 323.32 670.515 319.653C730.848 303.987 793.848 327.653 829.182 378.653C850.848 408.653 859.182 445.653 853.182 481.987C850.079 499.715 843.283 516.593 833.233 531.524C823.183 546.455 810.105 559.106 794.848 568.653L608.848 686.987C596.75 694.303 583.752 700.018 570.182 703.987Z" fill="#D43008"/>
<path d="M1177.43 283.117C1157.14 292.838 855.542 264.439 717.197 330.525C578.834 396.639 504.042 470.564 476.645 567.589C449.267 664.585 498.749 691.16 508.442 735.148C518.163 779.153 533.765 835.046 600.413 859.242C687.685 890.919 793.767 887.141 921.756 767.971C1049.72 648.784 1105.83 508.517 1134.57 429.656C1152 381.787 1166.32 332.838 1177.43 283.117ZM1158.12 304.712L511.079 744.56L505.352 718.042L1158.12 304.712Z" fill="#BCE56B"/>
<path d="M60.6651 257.67C80.2677 268.708 383.087 260.271 516.77 335.342C650.469 410.442 720.22 489.141 741.155 587.762C762.074 686.353 710.946 709.605 698.372 752.857C685.768 796.126 666.512 850.867 598.413 870.613C509.241 896.462 403.64 885.693 283.792 758.338C163.973 630.967 117.242 487.303 93.7689 406.718C79.5278 357.802 68.47 308.015 60.6651 257.67ZM78.5061 280.491L695.119 762.075L702.583 735.992L78.5061 280.491Z" fill="#80BF44"/>
</svg>
